<?xml version="1.0" standalone="no"?>
<!DOCTYPE svg PUBLIC "-//W3C//DTD SVG 20010904//EN"
 "http://www.w3.org/TR/2001/REC-SVG-20010904/DTD/svg10.dtd">
<svg version="1.0" xmlns="http://www.w3.org/2000/svg"
 width="1024.000000pt" height="1024.000000pt" viewBox="0 0 1024.000000 1024.000000"
 preserveAspectRatio="xMidYMid meet">

<g transform="translate(0.000000,1024.000000) scale(0.100000,-0.100000)"
fill="#000000" stroke="none">
<path d="M3835 7778 c-8 -35 -80 -397 -132 -660 l-47 -238 -88 0 c-48 0 -88
-2 -88 -4 0 -2 9 -48 20 -101 17 -85 20 -136 20 -406 l0 -308 -88 -3 -89 -3
38 -120 38 -120 0 -1446 c1 -913 5 -1466 11 -1500 5 -30 28 -90 50 -135 71
-144 215 -255 377 -289 57 -12 296 -15 1526 -15 l1457 0 0 790 0 790 -340 0
-340 0 0 93 c-1 198 -54 333 -184 462 -58 58 -100 90 -148 113 l-68 32 0 95
c0 64 -5 108 -16 133 -18 45 -67 97 -105 113 l-29 11 0 139 0 139 -80 0 -80 0
0 -140 0 -140 -40 -20 c-22 -11 -52 -39 -67 -62 -26 -38 -28 -51 -31 -154 l-4
-112 -65 -32 c-83 -41 -196 -147 -246 -231 -57 -97 -78 -175 -84 -316 l-6
-123 -248 0 -249 0 0 355 0 355 216 0 c241 0 267 6 304 65 19 31 20 49 20 334
0 334 -2 344 -63 381 -29 18 -51 20 -254 20 l-223 0 0 154 c0 148 1 159 35
266 19 62 33 116 30 120 -3 5 -42 8 -88 8 l-82 -1 -3 284 c-2 252 0 296 18
391 11 60 23 114 26 123 5 12 -10 15 -88 17 l-93 3 -46 235 c-25 129 -65 335
-89 458 l-42 222 -74 0 c-68 0 -74 -2 -79 -22z m169 -870 l6 -28 -95 0 c-74 0
-95 3 -95 14 0 7 11 67 25 134 13 66 31 162 40 214 9 51 18 100 21 108 5 12
43 -161 98 -442z m146 -508 l0 -330 -75 0 -75 0 0 194 c0 178 -2 195 -20 219
-26 33 -62 41 -104 23 -50 -21 -57 -53 -53 -259 l3 -177 -73 0 -73 0 0 330 0
330 235 0 235 0 0 -330z m125 -512 c-5 -13 -10 -100 -12 -195 l-5 -172 -261
-3 c-377 -4 -357 18 -357 -404 0 -244 2 -291 16 -320 20 -43 48 -63 97 -71
l37 -6 0 -154 0 -155 43 7 c109 16 276 134 348 246 24 36 39 49 56 49 l23 0 0
-1061 0 -1061 -198 4 -198 3 -64 32 c-99 49 -163 118 -203 215 l-22 53 -5
1485 c-3 817 -9 1495 -14 1508 l-8 22 367 0 367 0 -7 -22z m525 -768 l0 -250
-338 0 -338 0 -29 -61 c-29 -62 -129 -179 -153 -179 -9 0 -12 32 -12 120 l0
120 -70 0 -70 0 0 250 0 250 505 0 505 0 0 -250z m773 -211 c26 -20 27 -22 29
-171 l3 -151 55 -14 c150 -38 270 -147 322 -291 16 -47 21 -90 25 -239 6 -178
6 -183 27 -183 11 0 164 0 339 0 l317 1 0 -636 0 -635 -87 0 -88 0 3 99 c3 77
0 107 -13 134 -27 58 -91 60 -129 5 -12 -17 -16 -49 -16 -130 l0 -108 -70 0
-70 0 0 226 0 226 -29 29 c-42 42 -102 41 -142 -2 l-29 -31 0 -224 0 -224
-154 0 -154 0 -1 197 c-2 190 -3 199 -26 239 -63 108 -231 111 -302 5 -22 -33
-23 -42 -23 -237 l0 -204 -155 0 -155 0 0 226 0 226 -29 29 c-50 49 -138 32
-160 -32 -7 -20 -11 -114 -11 -240 l0 -209 -75 0 -75 0 0 119 c0 117 -1 120
-26 140 -37 29 -78 27 -103 -5 -19 -24 -21 -40 -21 -146 l0 -119 -67 3 -68 3
-3 638 -2 637 325 0 325 0 0 143 c0 225 24 320 107 419 65 78 203 158 273 158
19 0 20 6 20 146 0 152 6 179 43 194 33 13 42 12 70 -11z"/>
<path d="M3840 4195 l0 -76 73 3 72 3 0 70 0 70 -72 3 -73 3 0 -76z"/>
<path d="M3940 5120 l0 -80 70 0 71 0 -3 78 -3 77 -67 3 -68 3 0 -81z"/>
<path d="M4230 5120 l0 -80 70 0 70 0 0 80 0 80 -70 0 -70 0 0 -80z"/>
<path d="M4520 5120 l0 -80 70 0 70 0 0 80 0 80 -70 0 -70 0 0 -80z"/>
<path d="M5477 4066 c-75 -27 -117 -91 -117 -179 0 -62 25 -108 79 -144 41
-27 135 -32 180 -8 40 20 78 69 93 116 25 84 -35 192 -121 218 -48 14 -67 13
-114 -3z"/>
</g>
</svg>
