<?xml version="1.0" encoding="UTF-8"?>
<svg version="1.1" xmlns="http://www.w3.org/2000/svg" width="512" height="512">
<path d="M0 0 C4.18086773 0.00256876 8.3617335 0.00017374 12.54260135 -0.00138617 C19.55652652 -0.00319467 26.57044109 -0.00083622 33.58436465 0.00395441 C41.64429187 0.0093966 49.70419379 0.00762932 57.7641204 0.00212801 C64.73882696 -0.00243842 71.71352598 -0.0030366 78.68823355 -0.00043333 C82.83007824 0.00110989 86.97191111 0.00137779 91.11375499 -0.00196981 C138.08202828 -0.03451395 138.08202828 -0.03451395 149.58363223 4.2593255 C150.46398135 4.57208429 151.34433047 4.88484308 152.25135684 5.20707941 C164.48583948 9.68680647 174.55300803 16.17067632 184.77113223 24.1343255 C185.76113223 24.7943255 186.75113223 25.4543255 187.77113223 26.1343255 C187.77113223 26.7943255 187.77113223 27.4543255 187.77113223 28.1343255 C188.43113223 28.1343255 189.09113223 28.1343255 189.77113223 28.1343255 C195.72628976 34.31749583 199.99050462 41.48690213 203.77113223 49.1343255 C204.21328067 50.00830988 204.65542911 50.88229425 205.11097598 51.782763 C212.81553333 67.75391228 213.92226493 83.27376332 213.9163959 100.6409173 C213.91939169 102.41261093 213.92279519 104.18430391 213.92657351 105.95599604 C213.93537584 110.74964216 213.93775006 115.54327041 213.9383893 120.33692384 C213.93910204 123.33801997 213.94124062 126.33911161 213.94388652 129.34020662 C213.9531281 139.82781622 213.95722297 150.31541314 213.95643497 160.80302668 C213.95583478 170.54990992 213.9663781 180.29673771 213.98217863 190.04360694 C213.99529349 198.43544783 214.0006172 206.8272707 213.99997956 215.21912175 C213.99972569 220.2206124 214.00251489 225.22205375 214.01315761 230.22353411 C214.02290501 234.9325187 214.02287266 239.64140753 214.01564097 244.35039568 C214.01460328 246.06834794 214.01690893 247.78630637 214.02300143 249.50424814 C214.11203298 276.3718927 208.18890263 299.77259147 189.27601504 319.64555597 C172.89316984 335.8529846 150.55619302 346.09206997 127.46284366 346.32531977 C125.24682356 346.30953558 123.03086109 346.28289534 120.81507754 346.24687433 C118.28295378 346.22443977 115.75082888 346.20213206 113.21870303 346.17993402 C111.88285693 346.16473579 110.54701352 346.14929892 109.21117282 346.13363314 C105.03007269 346.08722546 100.84912363 346.06876977 96.66779971 346.05661249 C95.9570867 346.05444611 95.24637369 346.05227973 94.51412392 346.0500477 C93.06228797 346.0457137 91.61045177 346.04146121 90.15861535 346.03728855 C80.44745287 346.00869042 70.73740991 345.9641896 61.02699161 345.8362298 C54.44373233 345.74968681 47.86197817 345.71033266 41.27814054 345.72348279 C37.80937086 345.7286076 34.34430101 345.71129463 30.87627292 345.63576937 C15.09061191 345.33772701 3.8338281 345.71794529 -7.98137021 356.962008 C-8.53113774 357.5110347 -9.08090528 358.0600614 -9.64733243 358.62572527 C-11.86820908 360.74418254 -14.32975392 362.37053403 -16.91636777 364.0093255 C-20.86869345 366.55089049 -24.71947452 369.18413998 -28.54136777 371.91948175 C-29.50598935 372.60091242 -30.47061093 373.28234308 -31.46446347 373.98442316 C-33.39462718 375.34931438 -35.31552913 376.7274233 -37.22569394 378.12016535 C-42.62082491 381.90258725 -47.42456231 384.85916458 -54.22886777 384.1343255 C-57.76611142 382.07093337 -58.93306299 381.02173985 -60.22886777 377.1343255 C-60.3136855 374.54802326 -60.34485006 371.98954494 -60.32652402 369.40385675 C-60.32510907 368.65343607 -60.32369412 367.90301538 -60.3222363 367.12985468 C-60.31664336 364.7354709 -60.30409221 362.34118097 -60.29136777 359.9468255 C-60.28635185 358.3224779 -60.28178911 356.69812882 -60.27769589 355.07377863 C-60.26667625 351.09392481 -60.2494165 347.11414107 -60.22886777 343.1343255 C-61.00053281 342.98737238 -61.77219785 342.84041925 -62.56724668 342.689013 C-83.39235338 338.34901645 -101.08205175 322.5658759 -112.91246152 305.73979425 C-124.1474224 288.14321916 -126.70032421 269.14412676 -126.60118222 248.7412591 C-126.60361724 246.95867943 -126.60734339 245.17610114 -126.61224484 243.39352655 C-126.62155899 238.60228985 -126.61230982 233.81126084 -126.59891272 229.02004051 C-126.5874962 223.9777829 -126.59171345 218.935534 -126.59365964 213.89326715 C-126.59453925 205.43224478 -126.58353077 196.97130303 -126.56504941 188.51030207 C-126.54387326 178.76042256 -126.54037688 169.0106609 -126.54661137 159.26076305 C-126.55232641 149.83679231 -126.54663509 140.41286262 -126.53543782 130.9888978 C-126.53082151 126.99804272 -126.52990499 123.00721299 -126.53202367 119.01635599 C-126.53392181 114.30972332 -126.5256867 109.60320883 -126.50996327 104.89660311 C-126.50575909 103.18026389 -126.50484343 101.46391258 -126.50765347 99.74757051 C-126.54378205 73.71140962 -120.70429623 50.17822955 -103.85777402 29.72416925 C-102.22886777 28.1343255 -102.22886777 28.1343255 -100.22886777 28.1343255 C-100.22886777 27.4743255 -100.22886777 26.8143255 -100.22886777 26.1343255 C-88.97893724 15.78438941 -75.26397867 8.51085375 -60.85386777 3.6343255 C-60.17308164 3.39101496 -59.4922955 3.14770441 -58.79087949 2.89702082 C-40.66484383 -2.74805053 -18.83517059 -0.01523565 0 0 Z " fill="#453286" transform="translate(212.22886776924133,81.86567449569702)"/>
<path d="M0 0 C1.0530835 -0.00628418 2.10616699 -0.01256836 3.19116211 -0.01904297 C17.41852675 0.21135064 30.73745096 5.80978566 41.25 15.5 C51.25 26.84808853 51.25 26.84808853 51.25 32.5 C51.91 32.5 52.57 32.5 53.25 32.5 C57.88908009 43.39175325 57.38602295 54.45843343 57.3125 66.125 C57.30747197 67.52473797 57.30291138 68.9244777 57.29882812 70.32421875 C57.28713167 73.71619169 57.27074086 77.10807233 57.25 80.5 C58.20229492 80.64260254 59.15458984 80.78520508 60.13574219 80.93212891 C64.547709 81.73663148 66.03722247 83.43325781 69.25 86.5 C71.90095895 90.47643842 71.54529691 93.94044585 71.54052734 98.55786133 C71.54724457 99.48500443 71.55396179 100.41214752 71.56088257 101.36738586 C71.57991356 104.43898854 71.58378953 107.51037325 71.5859375 110.58203125 C71.59236255 112.71571442 71.59909069 114.8493967 71.60610962 116.983078 C71.61809563 121.45952395 71.62178915 125.93589265 71.62060547 130.41235352 C71.62040236 136.14581059 71.64769055 141.87877155 71.68214989 147.61211109 C71.70440018 152.0207903 71.70844356 156.42934984 71.70738602 160.83807945 C71.70974533 162.95157262 71.71858738 165.06506893 71.73405075 167.17850685 C71.75366978 170.13734142 71.74788816 173.09510283 71.73583984 176.05395508 C71.74707886 176.92534119 71.75831787 177.79672729 71.76989746 178.69451904 C71.70821319 184.66274954 70.569873 188.180127 66.25 192.5 C64.79704215 192.70839236 63.3368369 192.86753581 61.875 193 C59.07678686 193.25521162 56.94189489 193.6027017 54.25 194.5 C52.14491764 194.59524446 50.0369224 194.63073113 47.9296875 194.6328125 C46.6715625 194.63410156 45.4134375 194.63539063 44.1171875 194.63671875 C42.79976563 194.63285156 41.48234375 194.62898437 40.125 194.625 C38.18367188 194.63080078 38.18367188 194.63080078 36.203125 194.63671875 C30.81528824 194.63123215 25.50068909 194.62162691 20.1484375 193.9609375 C16.84781238 193.57068323 14.25612774 193.52559728 11 194 C7.43632806 194.43379058 4.75861889 194.35344784 1.25 193.5 C-2.21111465 193.37181057 -5.39219779 193.44158331 -8.8125 194 C-16.94814478 195.03309775 -25.01226761 195.47967472 -32.75 192.5 C-33.08 192.83 -33.41 193.16 -33.75 193.5 C-36.04581781 193.57188471 -38.32517069 193.49646432 -40.62109375 193.4375 C-42.80502216 193.35218862 -42.80502216 193.35218862 -44.75 194.5 C-62.27871593 195.33353334 -62.27871593 195.33353334 -66.6875 192.0625 C-67.75 190.5 -67.75 190.5 -67.75 188.5 C-68.41 188.5 -69.07 188.5 -69.75 188.5 C-72.37389545 184.56415683 -72.04534912 181.19420726 -72.04052734 176.62573242 C-72.04724457 175.71809647 -72.05396179 174.81046051 -72.06088257 173.87532043 C-72.07991194 170.86864781 -72.08378945 167.86219788 -72.0859375 164.85546875 C-72.09236269 162.76662605 -72.09909084 160.67778427 -72.10610962 158.58894348 C-72.11809524 154.20665399 -72.12178919 149.8244434 -72.12060547 145.44213867 C-72.12040237 139.82974548 -72.14768988 134.21785917 -72.18214989 128.60558605 C-72.20440215 124.28955264 -72.2084435 119.97364144 -72.20738602 115.65755653 C-72.20974506 113.58872038 -72.21858559 111.519881 -72.23405075 109.4511013 C-72.25367375 106.55452534 -72.24788668 103.65904524 -72.23583984 100.76245117 C-72.24707886 99.90976654 -72.25831787 99.05708191 -72.26989746 98.17855835 C-72.21299415 92.78705472 -71.24719241 89.82824532 -67.75 85.5 C-67.3375 84.901875 -66.925 84.30375 -66.5 83.6875 C-63.58597997 81.71012926 -60.21137073 81.87880463 -56.75 81.5 C-56.77356567 80.04932129 -56.77356567 80.04932129 -56.79760742 78.56933594 C-56.85259239 74.92391547 -56.88659475 71.27853027 -56.91479492 67.6328125 C-56.92972752 66.06569217 -56.95008115 64.49861246 -56.97631836 62.93164062 C-57.24911685 46.19999969 -54.89763333 31.68025089 -43.046875 18.9375 C-41.52645455 17.32230031 -41.52645455 17.32230031 -39.75 14.5 C-38.09634594 13.47862543 -36.42623498 12.48387706 -34.75 11.5 C-33.60359562 10.54234985 -32.45782845 9.58393667 -31.3125 8.625 C-21.5149268 1.42090206 -11.8477966 0.05385757 0 0 Z " fill="#1B154A" transform="translate(255.75,153.5)"/>
<path d="M0 0 C0.33 0 0.66 0 1 0 C1.04680948 23.48805308 1.0820326 46.97609913 1.10362434 70.46418953 C1.11391814 81.37116179 1.12794207 92.27810499 1.15087891 103.18505859 C1.170871 112.69629368 1.18373021 122.20750772 1.18817699 131.71876323 C1.19077454 136.75057577 1.19684007 141.78232809 1.21146011 146.81412125 C1.22513615 151.55991295 1.22920258 156.30562021 1.22621536 161.05142975 C1.22676108 162.78389064 1.23067837 164.51635465 1.23841095 166.24879837 C1.3525515 193.16438491 -4.54514935 216.59930342 -23.49511719 236.51123047 C-39.87796239 252.71865909 -62.21493921 262.95774447 -85.30828857 263.19099426 C-87.52430867 263.17521008 -89.74027114 263.14856984 -91.95605469 263.11254883 C-94.48817845 263.09011427 -97.02030335 263.06780656 -99.5524292 263.04560852 C-100.8882753 263.03041028 -102.22411871 263.01497342 -103.55995941 262.99930763 C-107.74105954 262.95289995 -111.9220086 262.93444427 -116.10333252 262.92228699 C-116.81404553 262.9201206 -117.52475854 262.91795422 -118.25700831 262.91572219 C-119.70884426 262.9113882 -121.16068046 262.90713571 -122.61251688 262.90296304 C-132.32367936 262.87436492 -142.03372232 262.8298641 -151.74414062 262.7019043 C-158.3273999 262.6153613 -164.90915406 262.57600716 -171.49299169 262.58915728 C-174.96176137 262.59428209 -178.42683122 262.57696912 -181.89485931 262.50144386 C-197.68052033 262.20340151 -208.93730413 262.58361978 -220.75250244 273.8276825 C-221.30226997 274.37670919 -221.85203751 274.92573589 -222.41846466 275.49139977 C-224.63934131 277.60985704 -227.10088615 279.23620852 -229.6875 280.875 C-233.63982568 283.41656498 -237.49060675 286.04981447 -241.3125 288.78515625 C-242.27712158 289.46658691 -243.24174316 290.14801758 -244.2355957 290.85009766 C-246.16575941 292.21498888 -248.08666137 293.5930978 -249.99682617 294.98583984 C-255.39195714 298.76826175 -260.19569454 301.72483908 -267 301 C-270.53724365 298.93660787 -271.70419522 297.88741435 -273 294 C-273.08481773 291.41369776 -273.11598229 288.85521944 -273.09765625 286.26953125 C-273.0962413 285.51911057 -273.09482635 284.76868988 -273.09336853 283.99552917 C-273.0877756 281.6011454 -273.07522444 279.20685547 -273.0625 276.8125 C-273.05748408 275.18815239 -273.05292134 273.56380332 -273.04882812 271.93945312 C-273.03780848 267.95959931 -273.02054873 263.97981556 -273 260 C-273.77166504 259.85304688 -274.54333008 259.70609375 -275.33837891 259.5546875 C-296.16348561 255.21469095 -313.85318398 239.43155039 -325.68359375 222.60546875 C-336.97224106 204.92480816 -339.47761537 185.87798536 -339.34057617 165.38476562 C-339.3397276 163.579473 -339.34020953 161.77417935 -339.34190369 159.96888733 C-339.34275608 155.12072255 -339.32525443 150.27278546 -339.30418181 145.42467308 C-339.28528734 140.33850671 -339.28365459 135.25233375 -339.28010559 130.1661377 C-339.27082234 120.55826888 -339.24625948 110.95050381 -339.21605712 101.34268045 C-339.18239658 90.39452755 -339.16599794 79.44636939 -339.15097082 68.49817753 C-339.11970618 45.99872774 -339.06701889 23.49936971 -339 1 C-338.67 1 -338.34 1 -338 1 C-337.99853344 1.87077147 -337.99706688 2.74154295 -337.99555588 3.63870144 C-337.95839679 24.89164277 -337.89926209 46.14442579 -337.81609726 67.39723873 C-337.77640029 77.67522864 -337.74396054 87.95314302 -337.72900391 98.23120117 C-337.71593875 107.19649683 -337.68885096 116.16162565 -337.64538693 125.1268273 C-337.62288089 129.8675639 -337.60708274 134.60809555 -337.60811615 139.3488903 C-337.60886924 143.82482329 -337.59066188 148.3003051 -337.55883217 152.77612114 C-337.55041797 154.40570512 -337.54852441 156.03534023 -337.55419731 157.66493607 C-337.62631813 181.59815287 -330.61332835 204.70048715 -313.78125 222.34375 C-306.4832921 229.3137098 -298.54309974 234.91342353 -289.8125 239.9375 C-289.1839209 240.30311035 -288.5553418 240.6687207 -287.90771484 241.04541016 C-282.82811365 243.85515077 -277.59368355 245.49859394 -272 247 C-271.9906543 248.10512939 -271.98130859 249.21025879 -271.97167969 250.34887695 C-271.93182019 254.4474322 -271.86607363 258.54523358 -271.79248047 262.64331055 C-271.76424721 264.41730061 -271.74304437 266.19141701 -271.72900391 267.96557617 C-271.70760619 270.51547032 -271.66097565 273.06384166 -271.609375 275.61328125 C-271.60814636 276.40712723 -271.60691772 277.20097321 -271.60565186 278.01887512 C-271.50528043 282.42078081 -271.50528043 282.42078081 -269.18847656 286.01635742 C-265.60513069 287.62694427 -262.60487607 287.21617791 -259 286 C-255.46411439 283.93442373 -252.27090703 281.45675113 -249 279 C-247.11329169 277.71565848 -245.21703272 276.44525852 -243.3125 275.1875 C-242.30832031 274.52105469 -241.30414063 273.85460937 -240.26953125 273.16796875 C-239.19058594 272.45253906 -238.11164063 271.73710937 -237 271 C-233.86398333 268.91186976 -230.72985749 266.82090385 -227.59619141 264.72924805 C-224.55175968 262.697922 -221.5046469 260.67100564 -218.44921875 258.65625 C-217.37285156 257.9446875 -216.29648438 257.233125 -215.1875 256.5 C-214.23230469 255.8709375 -213.27710938 255.241875 -212.29296875 254.59375 C-209.94200679 253.06004492 -209.94200679 253.06004492 -208 251 C-205.76719666 250.7438736 -205.76719666 250.7438736 -202.92944336 250.73498535 C-201.85571976 250.72671219 -200.78199615 250.71843903 -199.67573547 250.70991516 C-198.4923912 250.71089706 -197.30904694 250.71187897 -196.08984375 250.71289062 C-194.84740402 250.70605759 -193.60496429 250.69922455 -192.32487488 250.69218445 C-189.61780459 250.6785617 -186.91099385 250.66854036 -184.20391846 250.66447449 C-179.91630688 250.65776286 -175.62885302 250.63600644 -171.34130859 250.61193848 C-162.22757607 250.56291527 -153.11380987 250.53068623 -144 250.5 C-134.18821336 250.46689059 -124.37648821 250.4307542 -114.56479549 250.37586927 C-110.31084742 250.3526368 -106.05700753 250.33880821 -101.80300236 250.33237457 C-98.51706817 250.32498766 -95.23120385 250.30497915 -91.9453125 250.28710938 C-90.19458687 250.28858223 -90.19458687 250.28858223 -88.40849304 250.29008484 C-67.79845364 250.13454987 -47.90630129 242.0000929 -32 229 C-31.02804687 228.236875 -30.05609375 227.47375 -29.0546875 226.6875 C-25.68882666 223.86481428 -23.01004578 220.63960403 -20.3125 217.1875 C-19.84005859 216.60935547 -19.36761719 216.03121094 -18.88085938 215.43554688 C-16.3964315 212.28210055 -14.64269802 209.40860148 -13.29296875 205.61328125 C-12 202 -12 202 -10 201 C-9.27306096 199.02111039 -8.60183749 197.02045442 -8 195 C-7.34 195 -6.68 195 -6 195 C-5.87683537 194.34408308 -5.75367073 193.68816616 -5.62677383 193.01237297 C-5.15199863 190.73052918 -4.6139166 188.46174081 -4.04653549 186.20114326 C-1.36054772 175.38391587 -0.41531279 165.28337582 -0.45410156 154.16748047 C-0.44533665 152.47025622 -0.4348409 150.77304018 -0.42277527 149.07583618 C-0.39525129 144.5315249 -0.39150303 139.98748767 -0.39249516 135.44310522 C-0.38933672 130.67051612 -0.36365846 125.89804528 -0.34051514 121.1255188 C-0.3001738 112.11629761 -0.27966624 103.1071484 -0.26654124 94.09785092 C-0.25059654 83.82912467 -0.21215004 73.56051961 -0.17194796 63.29186416 C-0.08984875 42.19461624 -0.03557002 21.09737437 0 0 Z " fill="#C09EE6" transform="translate(425,165)"/>
<path d="M0 0 C5.0951595 0.04867987 9.30028579 1.38647696 14 3.25 C15.010625 3.641875 16.02125 4.03375 17.0625 4.4375 C18.0215625 4.8396875 18.0215625 4.8396875 19 5.25 C19 5.91 19 6.57 19 7.25 C19.721875 7.45625 20.44375 7.6625 21.1875 7.875 C24.97218384 9.72528988 26.52258653 11.85240438 29 15.25 C29 15.91 29 16.57 29 17.25 C29.66 17.25 30.32 17.25 31 17.25 C36 29.25 36 29.25 36 62.25 C11.58 62.25 -12.84 62.25 -38 62.25 C-38 23.79545455 -38 23.79545455 -31 14.25 C-30.34 14.25 -29.68 14.25 -29 14.25 C-28.67 13.26 -28.34 12.27 -28 11.25 C-27.34 11.25 -26.68 11.25 -26 11.25 C-25.34 9.93 -24.68 8.61 -24 7.25 C-23.01 7.25 -22.02 7.25 -21 7.25 C-20.67 6.26 -20.34 5.27 -20 4.25 C-15.20934279 1.79920063 -10.34507904 0.98274605 -5 1.25 C-3.47728009 -0.27271991 -2.12064841 0.04418018 0 0 Z " fill="#2D2F76" transform="translate(257,172.75)"/>
<path d="M0 0 C0.33 0 0.66 0 1 0 C1.00146656 0.87077147 1.00293312 1.74154295 1.00444412 2.63870144 C1.04160321 23.89164277 1.10073791 45.14442579 1.18390274 66.39723873 C1.22359971 76.67522864 1.25603946 86.95314302 1.27099609 97.23120117 C1.28406125 106.19649683 1.31114904 115.16162565 1.35461307 124.1268273 C1.37711911 128.8675639 1.39291726 133.60809555 1.39188385 138.3488903 C1.39113076 142.82482329 1.40933812 147.3003051 1.44116783 151.77612114 C1.44958203 153.40570512 1.45147559 155.03534023 1.44580269 156.66493607 C1.37368187 180.59815287 8.38667165 203.70048715 25.21875 221.34375 C32.5167079 228.3137098 40.45690026 233.91342353 49.1875 238.9375 C49.8160791 239.30311035 50.4446582 239.6687207 51.09228516 240.04541016 C56.41437553 242.98928171 60.88212365 244.1646371 67 246 C67 261.51 67 277.02 67 293 C66.67 293 66.34 293 66 293 C66 281.78 66 270.56 66 259 C64.35 258.67 62.7 258.34 61 258 C38.74922947 250.47103837 19.69288168 235.08873887 9 214 C1.39579545 197.78515206 -0.45886862 182.0745445 -0.34057617 164.38476562 C-0.3397276 162.579473 -0.34020953 160.77417935 -0.34190369 158.96888733 C-0.34275608 154.12072255 -0.32525443 149.27278546 -0.30418181 144.42467308 C-0.28528734 139.33850671 -0.28365459 134.25233375 -0.28010559 129.1661377 C-0.27082234 119.55826888 -0.24625948 109.95050381 -0.21605712 100.34268045 C-0.18239658 89.39452755 -0.16599794 78.44636939 -0.15097082 67.49817753 C-0.11970618 44.99872774 -0.06701889 22.49936971 0 0 Z " fill="#CDB4EE" transform="translate(86,166)"/>
<path d="M0 0 C19.82782506 -0.02337027 39.65564733 -0.04099947 59.48348331 -0.05181217 C68.69008406 -0.05696635 77.89667624 -0.06399234 87.10327148 -0.07543945 C95.12862718 -0.0854131 103.15397667 -0.09185982 111.1793384 -0.09408849 C115.42787121 -0.09539104 119.67638628 -0.09844808 123.92491341 -0.10573006 C127.92622399 -0.11253255 131.92750956 -0.11460835 135.92882538 -0.11310768 C137.39492618 -0.11338211 138.86102785 -0.11536209 140.32712364 -0.11920547 C142.33465846 -0.12420877 144.34220678 -0.12238229 146.3497467 -0.12025452 C148.0324798 -0.12163721 148.0324798 -0.12163721 149.7492075 -0.12304783 C153.22275655 0.0084317 156.56945377 0.45223972 160 1 C160 1.99 160 2.98 160 4 C151.17156818 4.92741842 142.39947542 5.15673009 133.53271484 5.13037109 C131.34335685 5.12492123 129.15419626 5.13039817 126.96484375 5.13671875 C125.56770788 5.13605937 124.17057214 5.13478114 122.7734375 5.1328125 C121.51966309 5.13168457 120.26588867 5.13055664 118.97412109 5.12939453 C116 5 116 5 114 4 C112.97519531 4.15597656 111.95039063 4.31195313 110.89453125 4.47265625 C105.97102674 5.13932938 101.44147563 4.70321271 96.52148438 4.22851562 C94.68557571 4.07797458 92.84180463 4.03128773 91 4 C90.34 4.66 89.68 5.32 89 6 C85.9375 6.1875 85.9375 6.1875 83 6 C82.505 5.505 82.505 5.505 82 5 C79.41703809 4.76337083 76.85868337 4.59156576 74.26953125 4.46484375 C73.06693413 4.4022361 73.06693413 4.4022361 71.84004211 4.33836365 C61.22347834 3.81939067 50.59409893 3.67673875 39.96704102 3.52319336 C26.55389591 3.32177305 13.33635549 2.45405622 0 1 C0 0.67 0 0.34 0 0 Z " fill="#676B7E" transform="translate(180,82)"/>
<path d="M0 0 C0.33 0 0.66 0 1 0 C1.04680948 23.48805308 1.0820326 46.97609913 1.10362434 70.46418953 C1.11391814 81.37116179 1.12794207 92.27810499 1.15087891 103.18505859 C1.170871 112.69629368 1.18373021 122.20750772 1.18817699 131.71876323 C1.19077454 136.75057577 1.19684007 141.78232809 1.21146011 146.81412125 C1.22513615 151.55991295 1.22920258 156.30562021 1.22621536 161.05142975 C1.22676108 162.78389064 1.23067837 164.51635465 1.23841095 166.24879837 C1.35851701 194.57111726 -5.44155717 217.13184001 -25 238 C-31.12021858 244 -31.12021858 244 -34 244 C-34.33 242.68 -34.66 241.36 -35 240 C-34.38125 239.938125 -33.7625 239.87625 -33.125 239.8125 C-32.073125 239.4103125 -32.073125 239.4103125 -31 239 C-30.31867549 237.33927151 -29.65257873 235.672233 -29 234 C-26.875 232.6875 -26.875 232.6875 -25 232 C-25 231.34 -25 230.68 -25 230 C-22.35261084 228.5393715 -21.10551666 228 -18 228 C-18 227.01 -18 226.02 -18 225 C-18.99 224.67 -19.98 224.34 -21 224 C-20.34 223.01 -19.68 222.02 -19 221 C-18.34 221 -17.68 221 -17 221 C-17.433125 220.154375 -17.86625 219.30875 -18.3125 218.4375 C-19 215 -19 215 -18.08984375 213.25390625 C-17.18337202 212.06730039 -16.255418 210.89685122 -15.30859375 209.7421875 C-13.52828055 207.37197948 -12.86916635 204.8080759 -12 202 C-11.34 201.67 -10.68 201.34 -10 201 C-9.27306096 199.02111039 -8.60183749 197.02045442 -8 195 C-7.34 195 -6.68 195 -6 195 C-5.87683537 194.34408308 -5.75367073 193.68816616 -5.62677383 193.01237297 C-5.15199863 190.73052918 -4.6139166 188.46174081 -4.04653549 186.20114326 C-1.36054772 175.38391587 -0.41531279 165.28337582 -0.45410156 154.16748047 C-0.44533665 152.47025622 -0.4348409 150.77304018 -0.42277527 149.07583618 C-0.39525129 144.5315249 -0.39150303 139.98748767 -0.39249516 135.44310522 C-0.38933672 130.67051612 -0.36365846 125.89804528 -0.34051514 121.1255188 C-0.3001738 112.11629761 -0.27966624 103.1071484 -0.26654124 94.09785092 C-0.25059654 83.82912467 -0.21215004 73.56051961 -0.17194796 63.29186416 C-0.08984875 42.19461624 -0.03557002 21.09737437 0 0 Z " fill="#E8DBF6" transform="translate(425,165)"/>
<path d="M0 0 C0 0.66 0 1.32 0 2 C1.65 1.67 3.3 1.34 5 1 C5.14500644 4.60374463 5.23396763 8.20674242 5.3125 11.8125 C5.35439453 12.83666016 5.39628906 13.86082031 5.43945312 14.91601562 C5.48496549 17.69226984 5.46870586 20.2626537 5 23 C2.50218875 25.46311942 1.22140843 25.95949955 -2.23828125 26.07421875 C-4.15885417 25.71614583 -6.07942708 25.35807292 -8 25 C-8 24.01 -8 23.02 -8 22 C-8.99 22 -9.98 22 -11 22 C-11.33 22.99 -11.66 23.98 -12 25 C-13.75551971 21.48896058 -13.22711374 17.49277754 -13.25 13.625 C-13.270625 12.76132813 -13.29125 11.89765625 -13.3125 11.0078125 C-13.35170757 4.65618584 -13.35170757 4.65618584 -11.6328125 1.44921875 C-8.07640435 -1.70730619 -4.34551741 -1.11741876 0 0 Z " fill="#041B2F" transform="translate(307,208)"/>
<path d="M0 0 C0.33 0.66 0.66 1.32 1 2 C1.99 2.33 2.98 2.66 4 3 C-13.0730742 16.42354728 -33.31669968 23.33193429 -54.89770508 23.25537109 C-56.14934448 23.25899155 -57.40098389 23.262612 -58.69055176 23.26634216 C-61.39203987 23.27320506 -64.09327751 23.27663827 -66.79474831 23.27439499 C-71.06901837 23.27154135 -75.34312595 23.28598672 -79.61735535 23.30337524 C-91.76400372 23.35021725 -103.9106382 23.37435831 -116.05737305 23.38085938 C-122.78200753 23.38461015 -129.50645525 23.40263069 -136.23100966 23.43595374 C-140.47812431 23.45614313 -144.72475663 23.4585519 -148.97189963 23.44767356 C-152.23109725 23.44445357 -155.49013308 23.46715608 -158.74926758 23.48583984 C-159.92182602 23.47766739 -161.09438446 23.46949493 -162.30247498 23.46107483 C-168.54521707 23.46253767 -168.54521707 23.46253767 -174.13945007 25.93936157 C-174.75343155 26.61937225 -175.36741302 27.29938293 -176 28 C-178.31173278 29.69914595 -180.65586611 31.34531725 -183 33 C-183.66 32.67 -184.32 32.34 -185 32 C-182.11658466 27.78577758 -179.95696581 26.23924145 -175 25 C-175 24.01 -175 23.02 -175 22 C-171.85137122 21.07088242 -169.04877302 20.88274275 -165.77159119 20.89993286 C-164.71339172 20.90289368 -163.65519226 20.90585449 -162.56492615 20.90890503 C-161.40904495 20.91721344 -160.25316376 20.92552185 -159.06225586 20.93408203 C-157.22982834 20.94109131 -157.22982834 20.94109131 -155.36038208 20.94824219 C-152.70469412 20.95875111 -150.04907615 20.97102136 -147.39341545 20.98596573 C-143.18526952 21.00908116 -138.97712831 21.02234972 -134.76893616 21.03366089 C-122.80268266 21.06704609 -110.83649887 21.10851001 -98.87036133 21.17138672 C-92.26007629 21.20603811 -85.6498437 21.22976478 -79.03947741 21.24159515 C-75.54643283 21.24833317 -72.0536106 21.26065568 -68.56065178 21.28662491 C-64.6549222 21.31566046 -60.74934541 21.32100907 -56.84350586 21.32470703 C-55.70179428 21.3370639 -54.5600827 21.34942078 -53.3837738 21.3621521 C-46.12788217 21.34412016 -39.89572982 20.22273071 -33 18 C-31.04166667 17.45833333 -29.08333333 16.91666667 -27.125 16.375 C-26.26132812 16.13523437 -25.39765625 15.89546875 -24.5078125 15.6484375 C-22.01795009 15.0046413 -19.5260989 14.47986825 -17 14 C-17 13.34 -17 12.68 -17 12 C-10.25 9 -10.25 9 -8 9 C-7.67 8.34 -7.34 7.68 -7 7 C-6.319375 6.525625 -5.63875 6.05125 -4.9375 5.5625 C-3.9784375 4.7890625 -3.9784375 4.7890625 -3 4 C-3 3.01 -3 2.02 -3 1 C-2.01 0.67 -1.02 0.34 0 0 Z " fill="#9456C9" transform="translate(388,393)"/>
<path d="M0 0 C4.52105504 0.62125282 8.97119691 0.73277882 13.52929688 0.8190918 C14.91279076 0.85026344 14.91279076 0.85026344 16.32423401 0.88206482 C19.24798695 0.94704193 22.17182374 1.00620239 25.09570312 1.06518555 C27.08724798 1.10842016 29.0787846 1.15203597 31.0703125 1.19604492 C35.93285849 1.30266962 40.79548816 1.40408058 45.65820312 1.50268555 C45.65820312 1.83268555 45.65820312 2.16268555 45.65820312 2.50268555 C36.73199196 3.58562232 27.86261705 3.65681384 18.88696289 3.63305664 C16.46494354 3.62767274 14.04310767 3.63304409 11.62109375 3.6394043 C10.05664022 3.63874379 8.49218681 3.63746319 6.92773438 3.63549805 C6.2160762 3.63752228 5.50441803 3.63954651 4.77119446 3.64163208 C-0.00967109 3.61962037 -4.60688498 3.17108903 -9.34179688 2.50268555 C-9.34179688 3.16268555 -9.34179688 3.82268555 -9.34179688 4.50268555 C-10.00179687 4.50268555 -10.66179687 4.50268555 -11.34179688 4.50268555 C-11.34179688 3.84268555 -11.34179688 3.18268555 -11.34179688 2.50268555 C-13.55067444 2.61766821 -15.75890475 2.7451206 -17.96679688 2.87768555 C-19.81144531 2.98209961 -19.81144531 2.98209961 -21.69335938 3.08862305 C-25.17833542 3.48413425 -28.07229288 4.26530404 -31.34179688 5.50268555 C-31.34179688 4.84268555 -31.34179688 4.18268555 -31.34179688 3.50268555 C-34.41633247 4.27907875 -34.41633247 4.27907875 -36.34179688 6.50268555 C-36.34179688 5.51268555 -36.34179688 4.52268555 -36.34179688 3.50268555 C-36.94507813 3.77983398 -37.54835937 4.05698242 -38.16992188 4.3425293 C-38.96914062 4.70475586 -39.76835937 5.06698242 -40.59179688 5.44018555 C-41.77515625 5.9796582 -41.77515625 5.9796582 -42.98242188 6.5300293 C-45.34179688 7.50268555 -45.34179688 7.50268555 -47.51367188 7.9440918 C-49.73976871 8.41320113 -49.73976871 8.41320113 -51.34179688 11.50268555 C-52.33179688 11.50268555 -53.32179687 11.50268555 -54.34179688 11.50268555 C-54.67179688 12.16268555 -55.00179687 12.82268555 -55.34179688 13.50268555 C-55.34179688 12.84268555 -55.34179688 12.18268555 -55.34179688 11.50268555 C-56.01726562 11.84041992 -56.69273437 12.1781543 -57.38867188 12.52612305 C-61.37304688 14.51831055 -65.35742188 16.51049805 -69.34179688 18.50268555 C-69.67179687 17.51268555 -70.00179687 16.52268555 -70.34179688 15.50268555 C-69.68179688 15.50268555 -69.02179688 15.50268555 -68.34179688 15.50268555 C-68.31214844 14.91358398 -68.2825 14.32448242 -68.25195312 13.7175293 C-66.84934039 10.30430433 -63.99081077 9.45806866 -60.77929688 8.06518555 C-60.09657715 7.76733154 -59.41385742 7.46947754 -58.71044922 7.16259766 C-57.28147617 6.55226273 -55.84808473 5.95217779 -54.41064453 5.36206055 C-52.57100508 4.59789594 -50.75680877 3.7731168 -48.94726562 2.94018555 C-34.60207643 -2.72704969 -15.16157 -2.2562915 0 0 Z " fill="#4A5169" transform="translate(197.341796875,83.497314453125)"/>
<path d="M0 0 C0.33 0.66 0.66 1.32 1 2 C4.45831484 2.02949232 7.91659654 2.0469616 11.375 2.0625 C12.34050781 2.07087891 13.30601562 2.07925781 14.30078125 2.08789062 C19.83679111 2.10646784 25.23503514 1.87933089 30.73291016 1.21655273 C33.17827747 0.98297091 35.54520981 0.89914346 38 1 C38.495 1.495 38.495 1.495 39 2 C40.545827 1.87780024 42.08724915 1.69959008 43.625 1.5 C48.0759642 1.05092443 52.23064085 1.07070099 56.6875 1.4375 C63.75660577 2.00156336 70.78412607 2.11715322 77.875 2.125 C79.49088013 2.13164673 79.49088013 2.13164673 81.1394043 2.13842773 C82.64434448 2.13564819 82.64434448 2.13564819 84.1796875 2.1328125 C85.53682861 2.13112061 85.53682861 2.13112061 86.92138672 2.12939453 C88.98980579 2.23079689 88.98980579 2.23079689 90 1 C92.33297433 0.95907063 94.66705225 0.95758277 97 1 C96 3 96 3 94.24586487 3.61664295 C91.80992895 4.03244411 89.53782799 4.12890356 87.06616211 4.13371277 C85.57727982 4.14011024 85.57727982 4.14011024 84.05831909 4.14663696 C82.97559723 4.14618378 81.89287537 4.14573059 80.77734375 4.14526367 C79.05972336 4.15030159 79.05972336 4.15030159 77.30740356 4.15544128 C73.51742472 4.16495038 69.72749004 4.16689424 65.9375 4.16796875 C63.3072101 4.17118085 60.67692038 4.17454488 58.04663086 4.17805481 C52.53206087 4.18444716 47.01750288 4.18593749 41.50292969 4.18530273 C35.12951276 4.18470154 28.75618037 4.19526322 22.38278484 4.2110464 C16.24892579 4.22569487 10.11510733 4.22929092 3.98123169 4.22869301 C1.37207697 4.22987533 -1.23707834 4.23431112 -3.84622192 4.24202538 C-7.49000123 4.25179157 -11.13356112 4.24896069 -14.77734375 4.24291992 C-16.40142654 4.25134918 -16.40142654 4.25134918 -18.05831909 4.25994873 C-19.05090729 4.25575424 -20.04349548 4.25155975 -21.06616211 4.24723816 C-22.35809731 4.24805531 -22.35809731 4.24805531 -23.6761322 4.24888897 C-26.19171101 3.97946753 -27.82734408 3.26450625 -30 2 C-29.34 1.67 -28.68 1.34 -28 1 C-27.01 1.33 -26.02 1.66 -25 2 C-22.64738643 2.09511161 -20.29203033 2.12986976 -17.9375 2.125 C-16.68839844 2.12757813 -15.43929687 2.13015625 -14.15234375 2.1328125 C-11.09799287 2.21948276 -11.09799287 2.21948276 -9 1 C-7.64655763 0.95571559 -6.2910961 0.96069412 -4.9375 1 C-3.638125 1 -2.33875 1 -1 1 C-0.67 0.67 -0.34 0.34 0 0 Z " fill="#3B196F" transform="translate(223,345)"/>
<path d="M0 0 C2.4375 0.8125 2.4375 0.8125 4.4375 2.8125 C4.63599071 5.35785141 4.71601775 7.76966759 4.6875 10.3125 C4.69523437 11.00214844 4.70296875 11.69179687 4.7109375 12.40234375 C4.69083293 17.55916707 4.69083293 17.55916707 2.4375 19.8125 C-0.5625 20.0625 -0.5625 20.0625 -3.5625 19.8125 C-6.03635671 17.33864329 -5.84821102 15.83745772 -5.88476562 12.45117188 C-5.88154297 11.76603516 -5.87832031 11.08089844 -5.875 10.375 C-5.89111328 9.69373047 -5.90722656 9.01246094 -5.92382812 8.31054688 C-5.92672541 5.35241488 -5.90202097 3.30812256 -4.203125 0.828125 C-2.5625 -0.1875 -2.5625 -0.1875 0 0 Z " fill="#30BF84" transform="translate(303.5625,210.1875)"/>
<path d="M0 0 C3.52081558 -0.02927632 7.04159939 -0.04689119 10.5625 -0.0625 C11.55314453 -0.07087891 12.54378906 -0.07925781 13.56445312 -0.08789062 C14.53447266 -0.09111328 15.50449219 -0.09433594 16.50390625 -0.09765625 C17.38892822 -0.10289307 18.2739502 -0.10812988 19.18579102 -0.11352539 C22 0 22 0 25.2265625 0.48632812 C29.78873642 1.1073694 34.27246769 1.22932587 38.87109375 1.31640625 C40.25458763 1.3475779 40.25458763 1.3475779 41.66603088 1.37937927 C44.58978383 1.44435638 47.51362061 1.50351684 50.4375 1.5625 C52.42904486 1.60573461 54.42058148 1.64935042 56.41210938 1.69335938 C61.27465537 1.79998407 66.13728504 1.90139503 71 2 C71 2.33 71 2.66 71 3 C62.07378884 4.08293677 53.20441393 4.1541283 44.22875977 4.13037109 C41.80674041 4.1249872 39.38490454 4.13035855 36.96289062 4.13671875 C35.3984371 4.13605824 33.83398368 4.13477765 32.26953125 4.1328125 C31.55787308 4.13483673 30.8462149 4.13686096 30.11299133 4.13894653 C25.33212578 4.11693483 20.73491189 3.66840349 16 3 C16 3.66 16 4.32 16 5 C15.34 5 14.68 5 14 5 C14 4.34 14 3.68 14 3 C12.4840625 3.061875 12.4840625 3.061875 10.9375 3.125 C6.81923948 2.99426157 3.88169467 2.26749214 0 1 C0 0.67 0 0.34 0 0 Z " fill="#171E3B" transform="translate(172,83)"/>
<path d="M0 0 C0.33 0 0.66 0 1 0 C1.72398378 12.36025818 2.16014192 24.59582622 1.47900391 36.96337891 C0.89345775 47.94837255 0.67914925 58.94066743 0.4375 69.9375 C0.41544495 70.92738922 0.39338989 71.91727844 0.3706665 72.93716431 C0.24401556 78.6247122 0.12055262 84.31231969 0 90 C-0.33 90 -0.66 90 -1 90 C-1.0232584 79.889662 -1.04098352 69.77933045 -1.05181217 59.66897106 C-1.05701162 54.97339616 -1.0640554 50.27783969 -1.07543945 45.58227539 C-1.08637339 41.04352451 -1.09229892 36.50479126 -1.09487724 31.96602821 C-1.09671267 30.24185217 -1.10029648 28.51767699 -1.10573006 26.79350853 C-1.13289796 17.80828824 -1.0926433 8.9360428 0 0 Z " fill="#2D2E5F" transform="translate(88,172)"/>
<path d="M0 0 C0.33 0 0.66 0 1 0 C1.02319463 9.67515731 1.04095139 19.35030501 1.05181217 29.02548409 C1.05702542 33.51830148 1.06409476 38.01109982 1.07543945 42.50390625 C1.08632372 46.84163474 1.09228858 51.17934493 1.09487724 55.51708603 C1.09672151 57.17003543 1.10032288 58.82298386 1.10573006 60.47592545 C1.11301402 62.79533281 1.11398784 65.11466502 1.11352539 67.43408203 C1.115746 68.75312531 1.11796661 70.07216858 1.12025452 71.43118286 C1.00947349 74.71885336 0.62888755 77.77568344 0 81 C-0.33 81 -0.66 81 -1 81 C-1.75652918 75.71365652 -2.08798512 70.74584861 -1.92993164 65.390625 C-1.91057053 64.67744614 -1.89120941 63.96426727 -1.8712616 63.22947693 C-1.8066759 60.90277811 -1.73349656 58.57643786 -1.66015625 56.25 C-1.61335245 54.62477115 -1.5670912 52.9995266 -1.52134705 51.37426758 C-1.40014931 47.11955863 -1.27163273 42.86510178 -1.14154053 38.61065674 C-1.00982255 34.26009835 -0.88509689 29.90933998 -0.75976562 25.55859375 C-0.51331598 17.03885251 -0.25912654 8.51936506 0 0 Z " fill="#54407F" transform="translate(424,262)"/>
<path d="M0 0 C-1.57461313 1.04974209 -3.1492321 2.09947542 -4.72387695 3.14916992 C-6.08709538 4.05803696 -7.45021208 4.96705662 -8.81323242 5.8762207 C-11.97866968 7.98737536 -15.14540519 10.096423 -18.31640625 12.19921875 C-19.79947266 13.18341797 -19.79947266 13.18341797 -21.3125 14.1875 C-22.27285156 14.82171875 -23.23320312 15.4559375 -24.22265625 16.109375 C-26.07274648 17.36878945 -27.8940757 18.67153284 -29.68359375 20.015625 C-34.92458837 23.94038809 -38.3925292 25.87763943 -45 26 C-44.67 25.34 -44.34 24.68 -44 24 C-43.0925 23.938125 -42.185 23.87625 -41.25 23.8125 C-37.05119743 22.76279936 -36.13673025 21.01872621 -33.8828125 17.49609375 C-33.59148437 17.00238281 -33.30015625 16.50867188 -33 16 C-32.01 16.33 -31.02 16.66 -30 17 C-29.67 16.67 -29.34 16.34 -29 16 C-24.32 13 -24.32 13 -22 13 C-22.33 12.01 -22.66 11.02 -23 10 C-20.36 9.01 -17.72 8.02 -15 7 C-15 6.01 -15 5.02 -15 4 C-13.88625 3.896875 -12.7725 3.79375 -11.625 3.6875 C-10.42875 3.460625 -9.2325 3.23375 -8 3 C-7.34 2.01 -6.68 1.02 -6 0 C-3.39677846 -0.97620808 -2.52782417 -1.26391209 0 0 Z " fill="#8C45C2" transform="translate(203,427)"/>
<path d="M0 0 C0 4.06644281 -2.03038847 6.1184328 -4.4375 9.1875 C-5.10942383 10.05217896 -5.10942383 10.05217896 -5.79492188 10.93432617 C-9.68067254 15.81815731 -13.89617775 20.3591268 -19 24 C-19.66 24 -20.32 24 -21 24 C-21.33 22.68 -21.66 21.36 -22 20 C-21.38125 19.938125 -20.7625 19.87625 -20.125 19.8125 C-19.42375 19.544375 -18.7225 19.27625 -18 19 C-17.31867549 17.33927151 -16.65257873 15.672233 -16 14 C-13.875 12.6875 -13.875 12.6875 -12 12 C-12 11.34 -12 10.68 -12 10 C-9.35261084 8.5393715 -8.10551666 8 -5 8 C-5 7.01 -5 6.02 -5 5 C-5.99 4.67 -6.98 4.34 -8 4 C-7.67 3.34 -7.34 2.68 -7 2 C-5.68 2.33 -4.36 2.66 -3 3 C-3 2.34 -3 1.68 -3 1 C-2.01 0.67 -1.02 0.34 0 0 Z " fill="#BFABDA" transform="translate(412,385)"/>
<path d="M0 0 C0.66 0.33 1.32 0.66 2 1 C-2.01868789 3.90106463 -6.05090756 6.78156618 -10.09716797 9.64404297 C-11.83798104 10.88454538 -13.56244677 12.14471896 -15.28515625 13.41015625 C-21.34123522 17.71583304 -25.50134107 20 -33 20 C-33 19.01 -33 18.02 -33 17 C-31.37787941 16.47026689 -29.75218416 15.95146893 -28.125 15.4375 C-27.22007812 15.14746094 -26.31515625 14.85742188 -25.3828125 14.55859375 C-23 14 -23 14 -21 15 C-21 14.01 -21 13.02 -21 12 C-19.5459375 11.319375 -19.5459375 11.319375 -18.0625 10.625 C-14.92920418 9.34213779 -14.92920418 9.34213779 -14 7 C-10.9375 6.375 -10.9375 6.375 -8 6 C-8 5.34 -8 4.68 -8 4 C-6.71349294 3.30289269 -5.42059335 2.61757124 -4.125 1.9375 C-3.40570313 1.55464844 -2.68640625 1.17179687 -1.9453125 0.77734375 C-0.98238281 0.39255859 -0.98238281 0.39255859 0 0 Z " fill="#CAB8DD" transform="translate(191,446)"/>
<path d="M0 0 C0.495 0.99 0.495 0.99 1 2 C1.99 2.33 2.98 2.66 4 3 C-9.89023894 13.92107239 -26.35322016 21.13408356 -44 22 C-41.78175266 19.78175266 -41.04012764 19.62787234 -38.0625 19.0625 C-33.50380526 18.13455891 -29.05447888 16.94665852 -24.578125 15.68359375 C-22.06502882 15.01724249 -19.55415417 14.48234926 -17 14 C-17 13.34 -17 12.68 -17 12 C-10.25 9 -10.25 9 -8 9 C-7.67 8.34 -7.34 7.68 -7 7 C-6.319375 6.525625 -5.63875 6.05125 -4.9375 5.5625 C-3.9784375 4.7890625 -3.9784375 4.7890625 -3 4 C-3 3.01 -3 2.02 -3 1 C-2.01 0.67 -1.02 0.34 0 0 Z " fill="#8540B8" transform="translate(388,393)"/>
<path d="M0 0 C2.44959258 3.67438887 2.07735068 5.66836193 2 10 C2.33 10.99 2.66 11.98 3 13 C3.04450611 14.54102411 3.03914082 16.08383028 3 17.625 C2.95053261 21.84827861 3.23437582 25.90473715 3.78125 30.08984375 C4.19466655 33.69985615 4 37.36865284 4 41 C2.02441406 40.0378418 2.02441406 40.0378418 0 38 C-0.35519237 35.00511724 -0.46627491 32.38357009 -0.390625 29.39453125 C-0.38496521 28.55532639 -0.37930542 27.71612152 -0.37347412 26.85148621 C-0.35108406 24.17124367 -0.30088453 21.49233837 -0.25 18.8125 C-0.22993832 16.99546202 -0.21168697 15.17840308 -0.1953125 13.36132812 C-0.15121086 8.90703688 -0.08216659 4.45374515 0 0 Z " fill="#7F4BAE" transform="translate(153,411)"/>
<path d="M0 0 C0.66 0 1.32 0 2 0 C2.06058594 1.14339844 2.12117188 2.28679687 2.18359375 3.46484375 C2.26798428 4.95574305 2.35263302 6.44662775 2.4375 7.9375 C2.47681641 8.69224609 2.51613281 9.44699219 2.55664062 10.22460938 C2.44038024 13.91944187 2.44038024 13.91944187 4 17 C7 17.16666667 7 17.16666667 10 17 C11.94090826 15.05909174 11.39919435 11.52706098 11.5625 8.9375 C11.64628906 7.64714844 11.73007812 6.35679687 11.81640625 5.02734375 C11.87699219 4.02832031 11.93757813 3.02929688 12 2 C12.33 2 12.66 2 13 2 C13.33 7.94 13.66 13.88 14 20 C9.43927991 22.28036004 7.83279472 22.31803492 3 21 C-0.44821467 16.87163289 -0.36658872 12.82596878 -0.1875 7.6875 C-0.17396484 6.94693359 -0.16042969 6.20636719 -0.14648438 5.44335938 C-0.11135979 3.62858925 -0.05755972 1.81419712 0 0 Z " fill="#062932" transform="translate(296,212)"/>
<path d="M0 0 C0.33 0 0.66 0 1 0 C1.30384048 10.75820351 1.46861792 20.65608586 -2 31 C-4.41182192 27.38226712 -5.07496166 24.28031101 -5 20 C-4.42967123 17.73934902 -3.66598948 15.63105955 -2.8359375 13.453125 C-1.34912909 9.08996762 -0.72164645 4.54212765 0 0 Z " fill="#BBA0DE" transform="translate(424,337)"/>
<path d="M0 0 C2.08428676 5.84474818 0.08993403 12.39818315 -2 18 C-4.40356143 20.45560705 -6.78652288 21.82452381 -10 23 C-10 18.18766734 -8.65228477 16.90041878 -6 13 C-5.32204472 11.00379834 -4.65266469 9.00461299 -4 7 C-3.34 6.67 -2.68 6.34 -2 6 C-1.27306096 4.02111039 -0.60183749 2.02045442 0 0 Z " fill="#B284DC" transform="translate(417,360)"/>
<path d="M0 0 C1.83345287 3.23368481 2.5689063 6.21925076 3.1875 9.875 C3.36667969 10.88304687 3.54585938 11.89109375 3.73046875 12.9296875 C4.01417326 16.16145193 3.66576406 18.83644028 3 22 C3.66 22 4.32 22 5 22 C4.67 24.31 4.34 26.62 4 29 C4.66 29.33 5.32 29.66 6 30 C5.34 30.99 4.68 31.98 4 33 C0.2813509 21.74444601 -0.48624547 11.79145269 0 0 Z " fill="#B9A3E0" transform="translate(87,338)"/>
<path d="M0 0 C0 0.99 0 1.98 0 3 C-0.54269531 3.25394531 -1.08539063 3.50789063 -1.64453125 3.76953125 C-2.35996094 4.11371094 -3.07539063 4.45789063 -3.8125 4.8125 C-4.52019531 5.14894531 -5.22789062 5.48539062 -5.95703125 5.83203125 C-8.03876322 7.022161 -9.37408514 8.25381198 -11 10 C-16.4084507 15 -16.4084507 15 -20 15 C-20 15.66 -20 16.32 -20 17 C-20.99 17 -21.98 17 -23 17 C-23 17.66 -23 18.32 -23 19 C-23.66 18.67 -24.32 18.34 -25 18 C-23.79606723 14.3882017 -22.79049267 13.89600863 -19.6875 11.8125 C-18.79417969 11.20921875 -17.90085938 10.6059375 -16.98046875 9.984375 C-15.50513672 9.00210937 -15.50513672 9.00210937 -14 8 C-12.38544922 6.89398438 -12.38544922 6.89398438 -10.73828125 5.765625 C-2.26363032 0 -2.26363032 0 0 0 Z " fill="#CA97ED" transform="translate(196,432)"/>
<path d="M0 0 C1.30195313 0.00322266 2.60390625 0.00644531 3.9453125 0.00976562 C5.32552149 0.01812159 6.70572982 0.02658654 8.0859375 0.03515625 C9.47395676 0.04017124 10.86197772 0.04473415 12.25 0.04882812 C15.65368882 0.06064649 19.05729189 0.07712191 22.4609375 0.09765625 C22.4609375 0.42765625 22.4609375 0.75765625 22.4609375 1.09765625 C21.70474121 1.10176514 20.94854492 1.10587402 20.16943359 1.11010742 C16.72415466 1.1431183 13.28062627 1.21377322 9.8359375 1.28515625 C8.64613281 1.29095703 7.45632812 1.29675781 6.23046875 1.30273438 C-0.96027712 1.28647412 -0.96027712 1.28647412 -7.1328125 4.47265625 C-8.32390625 5.77203125 -8.32390625 5.77203125 -9.5390625 7.09765625 C-11.83990764 8.81692245 -14.18537905 10.45007783 -16.5390625 12.09765625 C-17.1990625 11.76765625 -17.8590625 11.43765625 -18.5390625 11.09765625 C-15.65564716 6.88343383 -13.49602831 5.3368977 -8.5390625 4.09765625 C-8.5390625 3.10765625 -8.5390625 2.11765625 -8.5390625 1.09765625 C-5.66887809 -0.33743596 -3.20362527 -0.01392881 0 0 Z " fill="#8644BD" transform="translate(221.5390625,413.90234375)"/>
<path d="M0 0 C0.66 0 1.32 0 2 0 C2.08172652 1.72836466 2.13951818 3.45786959 2.1875 5.1875 C2.22230469 6.15042969 2.25710937 7.11335937 2.29296875 8.10546875 C1.95084053 11.48569559 0.76809214 13.13569073 -1 16 C-1.77812951 19.11004262 -1.77812951 19.11004262 -2.1875 22.3125 C-2.34605469 23.38113281 -2.50460938 24.44976562 -2.66796875 25.55078125 C-2.77753906 26.35902344 -2.88710937 27.16726562 -3 28 C-3.33 28 -3.66 28 -4 28 C-4.3062374 18.09832404 -3.43969009 9.33630168 0 0 Z " fill="#1E2752" transform="translate(92,143)"/>
<path d="M0 0 C4.02280194 3.44811595 5.83411894 7.28648187 8 12 C8.46148437 12.95519531 8.92296875 13.91039062 9.3984375 14.89453125 C9.86507813 15.87808594 10.33171875 16.86164063 10.8125 17.875 C11.25207031 18.80054688 11.69164062 19.72609375 12.14453125 20.6796875 C12.42683594 21.44539063 12.70914062 22.21109375 13 23 C12.67 23.66 12.34 24.32 12 25 C11.938125 24.38125 11.87625 23.7625 11.8125 23.125 C11.171081 20.72238859 11.171081 20.72238859 8.4375 19.75 C7.633125 19.5025 6.82875 19.255 6 19 C6 16.69 6 14.38 6 12 C5.01 12 4.02 12 3 12 C2.814375 10.4221875 2.814375 10.4221875 2.625 8.8125 C2.08859218 5.54041229 1.36119965 2.99463924 0 0 Z " fill="#585B78" transform="translate(408,119)"/>
<path d="M0 0 C0 0.33 0 0.66 0 1 C-1.03125 1.12375 -2.0625 1.2475 -3.125 1.375 C-6.62116846 1.93889814 -9.68397627 2.78682059 -13 4 C-13 3.34 -13 2.68 -13 2 C-16.38018531 0.95994298 -19.4780279 0.91995518 -23 1 C-22 -1 -22 -1 -20.26953125 -1.61328125 C-13.32869725 -2.79597069 -6.61096929 -2.35056686 0 0 Z " fill="#1F2744" transform="translate(179,85)"/>
<path d="M0 0 C-0.38348427 2.50330006 -0.66841161 3.70579657 -2.59375 5.4140625 C-3.53734375 6.01347656 -3.53734375 6.01347656 -4.5 6.625 C-7.26274124 8.33468108 -7.26274124 8.33468108 -9 11 C-9.66 11 -10.32 11 -11 11 C-11 11.66 -11 12.32 -11 13 C-12.98 13.66 -14.96 14.32 -17 15 C-17.33 14.34 -17.66 13.68 -18 13 C-14.82177723 9.40722643 -11.13422023 7.0161906 -7.12109375 4.46484375 C-4.9774207 3.08320397 -4.9774207 3.08320397 -3.34765625 1.31640625 C-2 0 -2 0 0 0 Z " fill="#C894ED" transform="translate(397,392)"/>
<path d="M0 0 C2.73184672 2.37280401 3.85328621 4.63546589 5.125 8 C5.45757812 8.86625 5.79015625 9.7325 6.1328125 10.625 C6.78334659 12.4066429 7.40021287 14.20063861 8 16 C6.68 16 5.36 16 4 16 C3.67 16.66 3.34 17.32 3 18 C0.77076223 13.67265609 1.07529447 10.71599818 2 6 C1.34 6 0.68 6 0 6 C0 4.02 0 2.04 0 0 Z " fill="#B89AE4" transform="translate(90,354)"/>
<path d="M0 0 C2.375 0.8125 2.375 0.8125 3.375 2.8125 C1.065 2.8125 -1.245 2.8125 -3.625 2.8125 C-3.625 7.7625 -3.625 12.7125 -3.625 17.8125 C-1.645 17.8125 0.335 17.8125 2.375 17.8125 C2.705 17.1525 3.035 16.4925 3.375 15.8125 C3.375 16.8025 3.375 17.7925 3.375 18.8125 C2.375 19.8125 2.375 19.8125 -0.5625 20 C-3.625 19.8125 -3.625 19.8125 -5.625 17.8125 C-5.85055081 15.28457337 -5.94938591 12.90194424 -5.9375 10.375 C-5.95361328 9.69373047 -5.96972656 9.01246094 -5.98632812 8.31054688 C-5.98922303 5.35484996 -5.9635755 3.30816672 -4.26953125 0.828125 C-2.625 -0.1875 -2.625 -0.1875 0 0 Z " fill="#4DA98F" transform="translate(303.625,210.1875)"/>
<path d="M0 0 C0 0.99 0 1.98 0 3 C-2.265625 4.90234375 -2.265625 4.90234375 -5.25 6.9375 C-8.14102766 8.92221343 -10.76343408 10.7613662 -13.234375 13.25390625 C-15 15 -15 15 -17 15 C-16.67 14.01 -16.34 13.02 -16 12 C-15.34 11.67 -14.68 11.34 -14 11 C-13.58041016 10.09507813 -13.58041016 10.09507813 -13.15234375 9.171875 C-11.71010211 6.45361619 -9.99435676 5.11881603 -7.5625 3.25 C-6.78003906 2.63640625 -5.99757813 2.0228125 -5.19140625 1.390625 C-3 0 -3 0 0 0 Z " fill="#151F3E" transform="translate(126,101)"/>
<path d="M0 0 C0 4.0744433 -2.09169249 6.11745033 -4.5 9.1875 C-4.92925781 9.74630859 -5.35851562 10.30511719 -5.80078125 10.88085938 C-6.86078055 12.25885847 -7.92956188 13.63009407 -9 15 C-9.33 14.34 -9.66 13.68 -10 13 C-9.0625 10.375 -9.0625 10.375 -8 8 C-7.01 8 -6.02 8 -5 8 C-5 7.01 -5 6.02 -5 5 C-5.99 4.67 -6.98 4.34 -8 4 C-7.67 3.34 -7.34 2.68 -7 2 C-5.68 2.33 -4.36 2.66 -3 3 C-3 2.34 -3 1.68 -3 1 C-2.01 0.67 -1.02 0.34 0 0 Z " fill="#CAB4E3" transform="translate(412,385)"/>
<path d="M0 0 C3.96 0 7.92 0 12 0 C10.35 1.65 8.7 3.3 7 5 C6.67 4.01 6.34 3.02 6 2 C5.12988281 2.433125 5.12988281 2.433125 4.2421875 2.875 C-0.34449185 5.05480801 -3.80222849 6.53310477 -9 6 C-7.02579865 3.47740939 -6.03254358 3.0070192 -2.8125 2.3125 C-1.4203125 2.1578125 -1.4203125 2.1578125 0 2 C0 1.34 0 0.68 0 0 Z " fill="#111933" transform="translate(155,85)"/>
<path d="M0 0 C0.33 0 0.66 0 1 0 C1 7.26 1 14.52 1 22 C0.34 22.33 -0.32 22.66 -1 23 C-1.96738903 20.09783292 -2.07126595 18.5703176 -1.9140625 15.5859375 C-1.87023437 14.74289063 -1.82640625 13.89984375 -1.78125 13.03125 C-1.7296875 12.1546875 -1.678125 11.278125 -1.625 10.375 C-1.58117187 9.49070313 -1.53734375 8.60640625 -1.4921875 7.6953125 C-1.12966721 1.12966721 -1.12966721 1.12966721 0 0 Z " fill="#070C39" transform="translate(311,209)"/>
<path d="M0 0 C0.66 0.33 1.32 0.66 2 1 C1.98839844 2.13179687 1.97679687 3.26359375 1.96484375 4.4296875 C1.95546546 5.91145669 1.9463653 7.39322765 1.9375 8.875 C1.92912109 9.62136719 1.92074219 10.36773437 1.91210938 11.13671875 C1.79311916 15.19845578 1.79311916 15.19845578 3 19 C2.34 19 1.68 19 1 19 C0.67 19.99 0.34 20.98 0 22 C-1.16581918 19.66836164 -1.12905609 18.27846518 -1.1328125 15.68359375 C-1.13410156 14.83732422 -1.13539063 13.99105469 -1.13671875 13.11914062 C-1.13285156 12.23419922 -1.12898438 11.34925781 -1.125 10.4375 C-1.12886719 9.54869141 -1.13273437 8.65988281 -1.13671875 7.74414062 C-1.13542969 6.89916016 -1.13414062 6.05417969 -1.1328125 5.18359375 C-1.13168457 4.40556396 -1.13055664 3.62753418 -1.12939453 2.82592773 C-1 1 -1 1 0 0 Z " fill="#080F36" transform="translate(295,211)"/>
<path d="M0 0 C0.99 0.33 1.98 0.66 3 1 C2.67 1.99 2.34 2.98 2 4 C0.68 3.67 -0.64 3.34 -2 3 C-2 3.66 -2 4.32 -2 5 C-4.30078125 6.76171875 -4.30078125 6.76171875 -7.3125 8.6875 C-8.29863281 9.33074219 -9.28476563 9.97398437 -10.30078125 10.63671875 C-11.19152344 11.08660156 -12.08226562 11.53648437 -13 12 C-13.99 11.67 -14.98 11.34 -16 11 C-14.27278316 9.72651788 -12.54313762 8.45632943 -10.8125 7.1875 C-9.84957031 6.47980469 -8.88664063 5.77210938 -7.89453125 5.04296875 C-2.64612452 1.3386277 -2.64612452 1.3386277 0 0 Z " fill="#C995F2" transform="translate(212,420)"/>
<path d="M0 0 C0.33 0 0.66 0 1 0 C1.19252507 4.07460661 1.37120378 8.14956213 1.53710938 12.2253418 C1.59548391 13.61157474 1.65763024 14.99765423 1.72363281 16.38354492 C1.81788205 18.37634512 1.8974178 20.36982403 1.9765625 22.36328125 C2.02893066 23.56251221 2.08129883 24.76174316 2.13525391 25.99731445 C2 29 2 29 0 32 C-1.13916302 28.42525275 -1.03150662 25.21460618 -0.87890625 21.484375 C-0.83056641 20.23398437 -0.78222656 18.98359375 -0.73242188 17.6953125 C-0.67634766 16.39335937 -0.62027344 15.09140625 -0.5625 13.75 C-0.51029297 12.43257813 -0.45808594 11.11515625 -0.40429688 9.7578125 C-0.27465443 6.50496572 -0.13968844 3.25242833 0 0 Z " fill="#62469A" transform="translate(88,310)"/>
<path d="M0 0 C0.66 0 1.32 0 2 0 C2 0.66 2 1.32 2 2 C3.32 2.33 4.64 2.66 6 3 C6 3.66 6 4.32 6 5 C6.598125 5.103125 7.19625 5.20625 7.8125 5.3125 C10.28243264 6.08876455 11.32251235 7.07088921 13 9 C8.37952789 9.32235852 5.61222353 9.01018628 2 6 C0.6875 2.8125 0.6875 2.8125 0 0 Z " fill="#B79CDB" transform="translate(121,406)"/>
<path d="M0 0 C0.33 0 0.66 0 1 0 C1.16861083 4.01989623 1.32905633 8.04003007 1.48217773 12.06054688 C1.53531137 13.42619434 1.59061539 14.79175926 1.64819336 16.15722656 C1.73090914 18.12801988 1.80498839 20.0991696 1.87890625 22.0703125 C1.9260376 23.25383301 1.97316895 24.43735352 2.02172852 25.65673828 C2.00071103 28.89059772 1.62627785 31.83276319 1 35 C0.67 35 0.34 35 0 35 C-1.24558974 27.61872749 -0.90502834 20.45688144 -0.5625 13 C-0.51029297 11.74832031 -0.45808594 10.49664062 -0.40429688 9.20703125 C-0.27543258 6.13771802 -0.14050459 3.06879871 0 0 Z " fill="#644598" transform="translate(423,308)"/>
<path d="M0 0 C4.08055151 0.50547372 5.66272295 2.50088882 8.25 5.5625 C8.95640625 6.38878906 9.6628125 7.21507813 10.390625 8.06640625 C10.92171875 8.70449219 11.4528125 9.34257813 12 10 C11.01 10.33 10.02 10.66 9 11 C6 9 6 9 5 6 C1.99992729 4.29144978 1.99992729 4.29144978 -1 3 C-0.67 2.01 -0.34 1.02 0 0 Z " fill="#282E4A" transform="translate(388,101)"/>
<path d="M0 0 C-2.64 0.99 -5.28 1.98 -8 3 C-7.67 3.66 -7.34 4.32 -7 5 C-7.99 6.485 -7.99 6.485 -9 8 C-9.99 8 -10.98 8 -12 8 C-12.33 8.66 -12.66 9.32 -13 10 C-13.33 8.02 -13.66 6.04 -14 4 C-13.01 3.67 -12.02 3.34 -11 3 C-10.67 2.34 -10.34 1.68 -10 1 C-5.91441525 -0.72502467 -4.41437466 -1.10359366 0 0 Z " fill="#444E68" transform="translate(155,87)"/>
<path d="M0 0 C8.91 0 17.82 0 27 0 C26.01 1.485 26.01 1.485 25 3 C21.9375 3.25 21.9375 3.25 19 3 C18.67 2.67 18.34 2.34 18 2 C16.65984779 1.84417697 15.31241097 1.74955858 13.96484375 1.68359375 C13.15595703 1.64169922 12.34707031 1.59980469 11.51367188 1.55664062 C10.66353516 1.51732422 9.81339844 1.47800781 8.9375 1.4375 C8.08349609 1.39431641 7.22949219 1.35113281 6.34960938 1.30664062 C4.23327963 1.20023298 2.11666187 1.09958269 0 1 C0 0.67 0 0.34 0 0 Z " fill="#11193A" transform="translate(244,85)"/>
<path d="M0 0 C2.64 0 5.28 0 8 0 C8 4.62 8 9.24 8 14 C7.67 14 7.34 14 7 14 C7 9.71 7 5.42 7 1 C5.68 1.33 4.36 1.66 3 2 C2.67 2.99 2.34 3.98 2 5 C1.34 5 0.68 5 0 5 C0 6.65 0 8.3 0 10 C-0.33 10 -0.66 10 -1 10 C-1.125 2.25 -1.125 2.25 0 0 Z " fill="#42BC8A" transform="translate(300,213)"/>
<path d="M0 0 C1.5631897 0.00785522 1.5631897 0.00785522 3.15795898 0.01586914 C4.28266602 0.0190918 5.40737305 0.02231445 6.56616211 0.02563477 C7.75016602 0.03401367 8.93416992 0.04239258 10.15405273 0.05102539 C11.34192383 0.05553711 12.52979492 0.06004883 13.75366211 0.06469727 C16.69967499 0.07652864 19.64558954 0.09301252 22.59155273 0.11352539 C22.59155273 0.44352539 22.59155273 0.77352539 22.59155273 1.11352539 C21.71418457 1.15110962 21.71418457 1.15110962 20.8190918 1.18945312 C18.15970802 1.30575501 15.5006487 1.42832606 12.84155273 1.55102539 C11.4609668 1.61 11.4609668 1.61 10.05249023 1.67016602 C9.16303711 1.71206055 8.27358398 1.75395508 7.35717773 1.79711914 C6.54023438 1.83377686 5.72329102 1.87043457 4.8815918 1.90820312 C1.23696345 2.23497631 -0.77375977 2.47883789 -3.40844727 5.11352539 C-3.40844727 0.16066173 -3.40844727 0.16066173 0 0 Z " fill="#C895F1" transform="translate(219.408447265625,415.886474609375)"/>
<path d="M0 0 C2 2 2 2 2.9375 4.875 C3.94030738 7.82443346 5.00887882 9.64685679 7 12 C6.01 13.32 5.02 14.64 4 16 C0.82307843 10.75117306 0.34302035 5.98511371 0 0 Z " fill="#683FA3" transform="translate(89,342)"/>
<path d="M0 0 C0.58394531 0.36351562 1.16789062 0.72703125 1.76953125 1.1015625 C0.14782746 2.10689917 -1.47794112 3.10568157 -3.10546875 4.1015625 C-4.46285156 4.936875 -4.46285156 4.936875 -5.84765625 5.7890625 C-8.23046875 7.1015625 -8.23046875 7.1015625 -10.23046875 7.1015625 C-10.16796875 5.3515625 -10.16796875 5.3515625 -9.23046875 3.1015625 C-3.68208746 -1.48315257 -3.68208746 -1.48315257 0 0 Z " fill="#C6B3E0" transform="translate(385.23046875,411.8984375)"/>
<path d="M0 0 C0.6875 1.6875 0.6875 1.6875 1 4 C-0.67292823 7.69805188 -2.18712958 9.55373881 -6 11 C-6 9.02 -6 7.04 -6 5 C-5.01 5 -4.02 5 -3 5 C-2.87625 4.360625 -2.7525 3.72125 -2.625 3.0625 C-2.41875 2.381875 -2.2125 1.70125 -2 1 C-1.34 0.67 -0.68 0.34 0 0 Z " fill="#152042" transform="translate(104,122)"/>
<path d="M0 0 C1.72880982 -0.05449838 3.45812712 -0.09301688 5.1875 -0.125 C6.15042969 -0.14820312 7.11335938 -0.17140625 8.10546875 -0.1953125 C11.12812778 0.0086456 13.26769985 0.73125368 16 2 C16 2.33 16 2.66 16 3 C10.72 3 5.44 3 0 3 C0 2.01 0 1.02 0 0 Z " fill="#353F55" transform="translate(340,83)"/>
<path d="M0 0 C0.33 0 0.66 0 1 0 C1.33 3.3 1.66 6.6 2 10 C2.99 10 3.98 10 5 10 C4.67 12.31 4.34 14.62 4 17 C4.66 17.33 5.32 17.66 6 18 C5.34 18.99 4.68 19.98 4 21 C3.32382476 18.62734939 2.65891774 16.25244645 2 13.875 C1.80921875 13.20984375 1.6184375 12.5446875 1.421875 11.859375 C0.30791545 7.8013795 -0.20950232 4.20314026 0 0 Z " fill="#DBD0EE" transform="translate(87,350)"/>
<path d="M0 0 C-1.4638611 4.39158329 -3.97831338 4.87947433 -8 7 C-8.33 6.01 -8.66 5.02 -9 4 C-8.34 4 -7.68 4 -7 4 C-6.87625 3.360625 -6.7525 2.72125 -6.625 2.0625 C-6.41875 1.381875 -6.2125 0.70125 -6 0 C-3.50907189 -1.24546405 -2.58919267 -0.7767578 0 0 Z " fill="#303C54" transform="translate(136,95)"/>
<path d="M0 0 C0 1.98 0 3.96 0 6 C-1.32 6.33 -2.64 6.66 -4 7 C-4 7.66 -4 8.32 -4 9 C-4.99 8.67 -5.98 8.34 -7 8 C-6.34 7.67 -5.68 7.34 -5 7 C-5.33 6.01 -5.66 5.02 -6 4 C-1.125 0 -1.125 0 0 0 Z " fill="#B998DD" transform="translate(413,379)"/>
<path d="M0 0 C4.29 0 8.58 0 13 0 C13.33 1.32 13.66 2.64 14 4 C8.80790596 4.21192221 4.873261 3.5912689 0 2 C0 1.34 0 0.68 0 0 Z " fill="#131D36" transform="translate(344,85)"/>
<path d="M0 0 C2 3 2 3 4 6 C4.825 6.309375 5.65 6.61875 6.5 6.9375 C9 8 9 8 10.3125 10.125 C10.6528125 11.053125 10.6528125 11.053125 11 12 C6.32894208 10.44298069 2.91294315 7.91552627 -1 5 C-0.67 3.35 -0.34 1.7 0 0 Z " fill="#7C3FB2" transform="translate(121,391)"/>
<path d="M0 0 C2.09012603 1.80510884 3.00096499 3.0025331 4 5.625 C4.495 6.800625 4.495 6.800625 5 8 C5.99 8.33 6.98 8.66 8 9 C8.33 10.98 8.66 12.96 9 15 C5.07752641 11.30166776 1.8810453 7.57577783 -1 3 C-0.67 2.01 -0.34 1.02 0 0 Z " fill="#D0B9E7" transform="translate(101,385)"/>
<path d="M0 0 C0.66 0.33 1.32 0.66 2 1 C-0.28431738 3.35800504 -2.0081024 4.88720897 -5.3359375 5.265625 C-7.56920205 5.251535 -9.77382441 5.17460201 -12 5 C-12 4.34 -12 3.68 -12 3 C-11.30132812 2.86722656 -10.60265625 2.73445313 -9.8828125 2.59765625 C-8.51769531 2.33275391 -8.51769531 2.33275391 -7.125 2.0625 C-6.22007812 1.88847656 -5.31515625 1.71445312 -4.3828125 1.53515625 C-2.00043683 1.10036299 -2.00043683 1.10036299 0 0 Z " fill="#C393EB" transform="translate(168,450)"/>
<path d="M0 0 C0.66 0.33 1.32 0.66 2 1 C-3.1854406 5.38555881 -7.28576679 7.80102978 -14 9 C-14 8.34 -14 7.68 -14 7 C-12.02 6.67 -10.04 6.34 -8 6 C-8 5.34 -8 4.68 -8 4 C-6.71349294 3.30289269 -5.42059335 2.61757124 -4.125 1.9375 C-3.40570313 1.55464844 -2.68640625 1.17179687 -1.9453125 0.77734375 C-1.30335938 0.52082031 -0.66140625 0.26429688 0 0 Z " fill="#C5ACDD" transform="translate(191,446)"/>
<path d="M0 0 C0 0.33 0 0.66 0 1 C-6.95068039 3.79080349 -13.54508438 4.63419196 -21 5 C-18.71194223 2.71194223 -17.66724344 2.54417401 -14.5625 1.9375 C-4.42421652 -0.08347578 -4.42421652 -0.08347578 0 0 Z " fill="#8C49C1" transform="translate(365,410)"/>
<path d="M0 0 C0.33 0.66 0.66 1.32 1 2 C-0.59617578 5.83082186 -1.49984971 7.66656647 -5 10 C-5.33 10.99 -5.66 11.98 -6 13 C-6.66 13 -7.32 13 -8 13 C-6.40956621 7.91061189 -3.2553049 4.12543357 0 0 Z " fill="#7C8293" transform="translate(107,114)"/>
<path d="M0 0 C0 0.66 0 1.32 0 2 C-1.43344 2.53190541 -2.87195367 3.05015258 -4.3125 3.5625 C-5.51326172 3.99755859 -5.51326172 3.99755859 -6.73828125 4.44140625 C-9 5 -9 5 -12 4 C-11 2 -11 2 -8.8125 0.875 C-5.73230669 -0.08328236 -3.20690052 -0.14915816 0 0 Z " fill="#CEBCDE" transform="translate(371,420)"/>
<path d="M0 0 C0.66 0.33 1.32 0.66 2 1 C-1.16952847 4.26008643 -4.39937989 7.22237877 -8 10 C-7.375 6.6875 -7.375 6.6875 -6 3 C-3 1 -3 1 0 0 Z " fill="#7E3FB3" transform="translate(400,385)"/>
<path d="M0 0 C2.10827055 3.16240582 2.33817465 4.50657469 2.625 8.1875 C2.69976562 9.08855469 2.77453125 9.98960937 2.8515625 10.91796875 C2.90054688 11.60503906 2.94953125 12.29210937 3 13 C2.01 13 1.02 13 0 13 C0 8.71 0 4.42 0 0 Z " fill="#C1AEDF" transform="translate(153,449)"/>
<path d="M0 0 C0.99 0 1.98 0 3 0 C1.74194623 4.50802601 0.09592835 7.4912812 -3 11 C-3.32136655 6.39374606 -2.91033076 3.66486096 0 0 Z " fill="#CCBAE0" transform="translate(416,374)"/>
<path d="M0 0 C0.66 0.33 1.32 0.66 2 1 C0.25 4.875 0.25 4.875 -2 6 C-2.144375 6.5775 -2.28875 7.155 -2.4375 7.75 C-3.13323975 10.532959 -4.4637074 12.5953681 -6 15 C-6.33 14.34 -6.66 13.68 -7 13 C-6.2578125 10.90625 -6.2578125 10.90625 -5.125 8.5 C-4.75632812 7.7059375 -4.38765625 6.911875 -4.0078125 6.09375 C-3.3486219 4.72426876 -2.67970746 3.35941491 -2 2 C-1.34 2 -0.68 2 0 2 C0 1.34 0 0.68 0 0 Z " fill="#4D556F" transform="translate(112,108)"/>
<path d="M0 0 C-1.125 2 -1.125 2 -3 4 C-6.1875 4.25 -6.1875 4.25 -9 4 C-9 3.01 -9 2.02 -9 1 C-2.25 -1.125 -2.25 -1.125 0 0 Z " fill="#C4B3DC" transform="translate(167,462)"/>
<path d="M0 0 C0.66 0 1.32 0 2 0 C1.875 1.8125 1.875 1.8125 1 4 C-2.21776055 5.93065633 -5.31145641 7.29066469 -9 8 C-9 8.66 -9 9.32 -9 10 C-9.66 9.67 -10.32 9.34 -11 9 C-7.99263074 5.64562659 -5.02023435 3.9654479 -1 2 C-0.67 1.34 -0.34 0.68 0 0 Z " fill="#B39BD3" transform="translate(192,442)"/>
<path d="M0 0 C0.99 0 1.98 0 3 0 C2.88541307 1.43836751 2.75790884 2.87570966 2.625 4.3125 C2.55539062 5.11300781 2.48578125 5.91351563 2.4140625 6.73828125 C2 9 2 9 0 12 C-0.76173392 7.6835078 -1.16063604 4.25566547 0 0 Z " fill="#CEBCE6" transform="translate(421,356)"/>
<path d="M0 0 C1.98 0 3.96 0 6 0 C6.99 2.31 7.98 4.62 9 7 C5.18315774 5.44499019 2.80804268 2.96404505 0 0 Z " fill="#CCB9E3" transform="translate(114,404)"/>
<path d="M0 0 C0.99 1.32 1.98 2.64 3 4 C2.67 4.66 2.34 5.32 2 6 C1.01 6 0.02 6 -1 6 C-1.12375 6.94875 -1.2475 7.8975 -1.375 8.875 C-2 12 -2 12 -4 14 C-3.00956295 9.16371695 -2.04301154 4.52381127 0 0 Z " fill="#747A93" transform="translate(93,137)"/>
<path d="M0 0 C3.33511388 2.9901021 5.21521119 5.89498574 7 10 C7 10.66 7 11.32 7 12 C5.68 12 4.36 12 3 12 C2.814375 10.4221875 2.814375 10.4221875 2.625 8.8125 C2.08859218 5.54041229 1.36119965 2.99463924 0 0 Z " fill="#686F8A" transform="translate(408,119)"/>
<path d="M0 0 C4.04256383 1.22217046 7.49288959 2.62754296 11 5 C11 5.33 11 5.66 11 6 C6.74808535 6.36444983 4.41482003 5.56111503 1 3 C0.67 2.01 0.34 1.02 0 0 Z " fill="#646A7F" transform="translate(372,91)"/>
<path d="M0 0 C2.97 1.98 2.97 1.98 6 4 C5.67 5.32 5.34 6.64 5 8 C2.00675737 6.9024777 1.15389099 6.32317108 -0.25 3.375 C-0.4975 2.59125 -0.745 1.8075 -1 1 C-0.67 0.67 -0.34 0.34 0 0 Z " fill="#C2B0DD" transform="translate(109,395)"/>
<path d="M0 0 C2.96175123 0.61277612 4.38058783 1.25372522 7 3 C6.67 4.32 6.34 5.64 6 7 C3.00675737 5.9024777 2.15389099 5.32317108 0.75 2.375 C0.5025 1.59125 0.255 0.8075 0 0 Z " fill="#BEA9E1" transform="translate(97,381)"/>
<path d="M0 0 C4.05281712 1.22527029 7.44360764 2.69880494 11 5 C10.67 5.66 10.34 6.32 10 7 C9.34 7 8.68 7 8 7 C7.566875 6.525625 7.13375 6.05125 6.6875 5.5625 C4.55306267 3.58616914 2.83692053 3.38336764 0 3 C0 2.01 0 1.02 0 0 Z " fill="#C697F2" transform="translate(135,406)"/>
<path d="M0 0 C0.99 0.33 1.98 0.66 3 1 C-1.625 5.875 -1.625 5.875 -5 7 C-5.66 6.34 -6.32 5.68 -7 5 C-5.90554162 4.13342884 -4.79902219 3.28207276 -3.6875 2.4375 C-3.07261719 1.96183594 -2.45773437 1.48617188 -1.82421875 0.99609375 C-1.22222656 0.66738281 -0.62023437 0.33867187 0 0 Z " fill="#683DA0" transform="translate(324,343)"/>
<path d="M0 0 C0.33 0 0.66 0 1 0 C1 4.29 1 8.58 1 13 C-0.32 12.67 -1.64 12.34 -3 12 C-2.690625 11.505 -2.38125 11.01 -2.0625 10.5 C-0.58355618 7.02013219 -0.37597149 3.75971491 0 0 Z " fill="#373677" transform="translate(292,221)"/>
<path d="M0 0 C1.98 0.495 1.98 0.495 4 1 C2.35 1.33 0.7 1.66 -1 2 C-0.67 1.34 -0.34 0.68 0 0 Z M-1 2 C-1.33 2.99 -1.66 3.98 -2 5 C-4.97 4.505 -4.97 4.505 -8 4 C-8 3.67 -8 3.34 -8 3 C-3.25 2 -3.25 2 -1 2 Z " fill="#B79DD8" transform="translate(361,420)"/>
<path d="M0 0 C2.31 0 4.62 0 7 0 C7.33 0.66 7.66 1.32 8 2 C9.64363134 2.72159424 11.31050386 3.39351421 13 4 C11 5 11 5 8.90625 4.51171875 C8.1121875 4.23972656 7.318125 3.96773438 6.5 3.6875 C5.7059375 3.42324219 4.911875 3.15898437 4.09375 2.88671875 C2 2 2 2 0 0 Z " fill="#8A4FC1" transform="translate(139,407)"/>
<path d="M0 0 C0.66 0 1.32 0 2 0 C1.88541307 1.43836751 1.75790884 2.87570966 1.625 4.3125 C1.55539062 5.11300781 1.48578125 5.91351563 1.4140625 6.73828125 C1 9 1 9 -1 12 C-1.02687279 10.18757948 -1.04633715 8.37504767 -1.0625 6.5625 C-1.07410156 5.55316406 -1.08570313 4.54382813 -1.09765625 3.50390625 C-1 1 -1 1 0 0 Z " fill="#7C51B5" transform="translate(421,343)"/>
<path d="M0 0 C0 0.66 0 1.32 0 2 C-3.3 2.33 -6.6 2.66 -10 3 C-9 1 -9 1 -7.25 0.375 C-4.79549443 -0.03408426 -2.4840589 -0.06900164 0 0 Z " fill="#9598A4" transform="translate(166,83)"/>
<path d="M0 0 C1 2 1 2 0.25 5.0625 C-0.1625 6.031875 -0.575 7.00125 -1 8 C-1.99 8.33 -2.98 8.66 -4 9 C-2.94124926 5.59687262 -1.99097846 2.98646769 0 0 Z " fill="#697084" transform="translate(98,128)"/>
<path d="M0 0 C0.66 0.33 1.32 0.66 2 1 C-0.64 2.65 -3.28 4.3 -6 6 C-6.33 5.01 -6.66 4.02 -7 3 C-4.69631264 1.93347808 -2.35981813 0.93578995 0 0 Z " fill="#D1C4E4" transform="translate(181,453)"/>
<path d="M0 0 C0 0.66 0 1.32 0 2 C-3.57644848 3.2380014 -6.33694766 2.74926071 -10 2 C-6.3558226 -0.4294516 -4.28758728 -0.16179575 0 0 Z " fill="#C18AE8" transform="translate(367,411)"/>
<path d="M0 0 C1.32 0.33 2.64 0.66 4 1 C4 1.99 4 2.98 4 4 C2.02 4.66 0.04 5.32 -2 6 C-2 5.34 -2 4.68 -2 4 C-1.34 3.67 -0.68 3.34 0 3 C0 2.01 0 1.02 0 0 Z " fill="#B799DD" transform="translate(403,389)"/>
<path d="M0 0 C2.91517292 1.07401108 4.77810176 1.77810176 7 4 C2.25 5.125 2.25 5.125 0 4 C0 2.68 0 1.36 0 0 Z " fill="#6A41A9" transform="translate(188,345)"/>
<path d="M0 0 C0.66 0 1.32 0 2 0 C2.25 2.25 2.25 2.25 2 5 C0 7.3125 0 7.3125 -2 9 C-1.34 6.03 -0.68 3.06 0 0 Z " fill="#182045" transform="translate(92,143)"/>
<path d="M0 0 C4.95 0.99 4.95 0.99 10 2 C7.0017825 2.74955438 4.03063487 3.41070989 1 4 C0.67 2.68 0.34 1.36 0 0 Z " fill="#828D9A" transform="translate(357,86)"/>
<path d="M0 0 C1.32 0.33 2.64 0.66 4 1 C2.35 2.98 0.7 4.96 -1 7 C-1.33 6.34 -1.66 5.68 -2 5 C-1.0625 2.375 -1.0625 2.375 0 0 Z " fill="#D4C4EA" transform="translate(404,393)"/>
<path d="M0 0 C0.66 0 1.32 0 2 0 C1.1875 2.9375 1.1875 2.9375 0 6 C-0.99 6.33 -1.98 6.66 -3 7 C-1.125 2.25 -1.125 2.25 0 0 Z " fill="#B687E4" transform="translate(414,368)"/>
<path d="M0 0 C-0.33 0.99 -0.66 1.98 -1 3 C-0.67 3.99 -0.34 4.98 0 6 C-0.99 6 -1.98 6 -3 6 C-3 5.34 -3 4.68 -3 4 C-3.66 3.67 -4.32 3.34 -5 3 C-2.25 0 -2.25 0 0 0 Z " fill="#444D6A" transform="translate(129,97)"/>
<path d="M0 0 C6.75 0.75 6.75 0.75 9 3 C6.03 2.67 3.06 2.34 0 2 C0 1.34 0 0.68 0 0 Z " fill="#AEB1BE" transform="translate(347,83)"/>
</svg>
