<svg xmlns="http://www.w3.org/2000/svg" width="512" height="512">
    <defs>
        <!-- Gradiente background -->
        <linearGradient id="bg" x1="0" y1="0" x2="0" y2="1">
            <stop offset="0%" stop-color="#162a4d" />
            <stop offset="12%" stop-color="#16255c" />
            <stop offset="28%" stop-color="#262b6f" />
            <stop offset="70%" stop-color="#8045bd" />
            <stop offset="100%" stop-color="#9356cd" />
        </linearGradient>

        <!-- Filtro per smussare le linee -->
        <filter id="smooth">
            <feGaussianBlur in="SourceGraphic" stdDeviation="0.5" />
        </filter>
    </defs>

    <!-- Sfondo principale con gradiente -->
    <path
        d="M212.229 81.866c4.18.002 8.362 0 12.542-.002 7.014-.002 14.028 0 21.042.006 8.06.005 16.12.003 24.18-.002 6.975-.005 13.95-.005 20.924-.003 4.142.002 8.284.002 12.426-.001 46.968-.033 46.968-.033 58.47 4.261l2.667.948C376.715 91.553 386.782 98.036 397 106l3 2v2h2c5.955 6.183 10.22 13.353 14 21l1.34 2.648c7.704 15.972 8.811 31.491 8.805 48.859l.01 5.315c.01 4.793.012 9.587.012 14.38.001 3.002.003 6.003.006 9.004.009 10.487.013 20.975.012 31.463 0 9.747.01 19.493.026 29.24.013 8.392.018 16.784.018 25.176 0 5.001.002 10.003.013 15.004.01 4.71.01 9.418.003 14.127-.002 1.718 0 3.436.007 5.154.089 26.868-5.834 50.268-24.747 70.141-16.383 16.208-38.72 26.447-61.813 26.68a727.983 727.983 0 01-6.648-.078l-7.596-.067-4.008-.047c-4.181-.046-8.362-.065-12.543-.077l-2.154-.006-4.356-.013c-9.71-.029-19.42-.073-29.131-.201-6.583-.087-13.165-.126-19.749-.113-3.469.005-6.934-.012-10.402-.088-15.786-.298-27.042.083-38.858 11.327l-1.665 1.663c-2.221 2.119-4.683 3.745-7.27 5.384a282.187 282.187 0 00-11.625 7.91l-2.923 2.065a488.973 488.973 0 00-5.76 4.136c-5.396 3.782-10.2 6.739-17.004 6.014-3.537-2.063-4.704-3.113-6-7a193.21 193.21 0 01-.098-7.73l.005-2.274c.005-2.395.018-4.79.03-7.184A4986.55 4986.55 0 01152 425l-2.338-.444c-20.825-4.34-38.515-20.123-50.346-36.95-11.235-17.596-13.787-36.595-13.688-56.998a3032.235 3032.235 0 01.002-19.721c.011-5.043.007-10.085.005-15.127 0-8.461.01-16.922.029-25.383.021-9.75.024-19.5.018-29.25-.005-9.424 0-18.847.011-28.271.005-3.991.006-7.982.004-11.973-.002-4.707.006-9.413.022-14.12.004-1.716.005-3.432.002-5.149-.036-26.036 5.804-49.57 22.65-70.023C110 110 110 110 112 110v-2c11.25-10.35 24.965-17.623 39.375-22.5l2.063-.737c18.126-5.645 39.956-2.913 58.79-2.897z"
        fill="url(#bg)" filter="url(#smooth)" />

    <!-- CORPO del lucchetto (solo rettangolo) -->
    <rect x="176" y="256" width="147" height="120" rx="23" fill="#0d112c" filter="url(#smooth)" />

    <!-- Ombra interna corpo -->
    <rect x="180" y="267" width="139" height="96" rx="20" fill="#000" opacity="0.18" />

    <!-- ARCHETTO del lucchetto (stretto, sottile, picco alto) -->
<path d="M 249 175
         C 215 175, 185 205, 185 239
         L 185 263
         L 193 263
         L 193 239
         C 193 210, 220 183, 249 183
         C 278 183, 305 210, 305 239
         L 305 263
         L 313 263
         L 313 239
         C 313 205, 283 175, 249 175
         Z
         
         M 249 183
         C 278 183, 305 210, 305 239
         L 305 263
         L 297 263
         L 297 239
         C 297 214, 274 191, 249 191
         C 224 191, 201 214, 201 239
         L 201 263
         L 193 263
         L 193 239
         C 193 210, 220 183, 249 183
         Z"
      fill="#0d112c"
      fill-rule="evenodd"
      filter="url(#smooth)"/>




    <!-- Indicatore verde -->
    <path
        d="M303.563 210.188C306 211 306 211 308 213c.198 2.545.279 4.957.25 7.5l.023 2.09c-.02 5.157-.02 5.157-2.273 7.41-3 .25-3 .25-6 0-2.474-2.474-2.286-3.975-2.322-7.361l.01-2.077-.05-2.064c-.002-2.958.022-5.002 1.721-7.482C301 210 301 210 303.563 210.188z"
        fill="#9fd6c1" />

    <path
        d="M303.625 210.188C306 211 306 211 307 213h-7v15h6l1-2v3c-1 1-1 1-3.938 1.188C300 230 300 230 298 228a77.921 77.921 0 01-.313-7.438l-.048-2.064c-.003-2.956.022-5.002 1.716-7.482C301 210 301 210 303.625 210.188z"
        fill="#71c6a7" />
</svg>